<svg xmlns="http://www.w3.org/2000/svg" viewBox="0 0 507.7 364"><defs><style>.cls-1{fill:#5662e5;}.cls-2{font-size:56.65px;font-family:CenturyGothic, Century Gothic;letter-spacing:0.5em;}</style></defs><g id="Camada_2" data-name="Camada 2"><g id="proposta_02"><path class="cls-1" d="M390,35.86H311V10.55A10.56,10.56,0,0,0,300.43,0H207.27a10.56,10.56,0,0,0-10.55,10.55V35.86H117.66A18.2,18.2,0,0,0,99.48,54V236.47a18.2,18.2,0,0,0,18.18,18.17H390a18.19,18.19,0,0,0,18.17-18.17V54A18.19,18.19,0,0,0,390,35.86ZM204,10.55a3.26,3.26,0,0,1,3.26-3.26h93.16a3.26,3.26,0,0,1,3.25,3.26V35.86H204ZM106.78,54a10.89,10.89,0,0,1,10.88-10.88H390A10.89,10.89,0,0,1,400.92,54v65a22.63,22.63,0,0,1-22.61,22.61H129.39A22.63,22.63,0,0,1,106.78,119ZM266,148.9v98.45H241.69V148.9ZM106.78,236.47V138.53a29.83,29.83,0,0,0,22.61,10.37h105v98.45H117.66A10.89,10.89,0,0,1,106.78,236.47Zm294.14,0A10.89,10.89,0,0,1,390,247.35H273.3V148.9h105a29.86,29.86,0,0,0,22.61-10.37Z"/><path class="cls-1" d="M225.84,122.67h56a3.65,3.65,0,1,0,0-7.29h-56a3.65,3.65,0,0,0,0,7.29Z"/><text class="cls-2" transform="translate(0 346.63)">Kero Salu</text></g></g></svg>