<svg xmlns="http://www.w3.org/2000/svg" viewBox="0 0 576.62 416.26"><defs><style>.cls-1,.cls-2{fill:#5662e5;}.cls-2{font-size:107.5px;}.cls-2,.cls-3{font-family:CenturyGothic, Century Gothic;}.cls-3{font-size:63.24px;fill:#1a1a1a;letter-spacing:1.69em;}</style></defs><g id="Camada_2" data-name="Camada 2"><g id="proposta_01"><path class="cls-1" d="M87.47,197.65a4.75,4.75,0,0,0,4.74,4.75H306a4.75,4.75,0,0,0,4.74-4.75V60.39A4.74,4.74,0,0,0,306,55.65H219V4.74A4.74,4.74,0,0,0,214.26,0H99.17a4.75,4.75,0,0,0-4.75,4.74V55.65H7.47A4.75,4.75,0,0,0,2.73,60.4L3,190.74a4.72,4.72,0,0,0,0,3.37l.31,134.1a4.74,4.74,0,0,0,4.75,4.73h0a4.74,4.74,0,0,0,4.73-4.75l-.29-124,127,127a4.72,4.72,0,0,0,3.35,1.38h70.61a4,4,0,0,0,.78.07h90.43a4.74,4.74,0,0,0,4.74-4.74v-.07a4.74,4.74,0,0,0-4.74-4.74H219v-48h47a4.75,4.75,0,0,0,0-9.49H219V217.53H306a4.74,4.74,0,1,0,0-9.48H214.26a4.75,4.75,0,0,0-4.75,4.74V323.07H144.83L14.18,192.42l88.94-88.94a4.74,4.74,0,1,0-6.71-6.7L12.5,180.68,12.23,65.13h289V192.91h-209A4.74,4.74,0,0,0,87.47,197.65ZM103.91,9.49h105.6V55.65H103.91Z"/><path class="cls-1" d="M184,165.68a4.75,4.75,0,1,0,0-9.49H128.26a4.75,4.75,0,1,0,0,9.49Z"/><text class="cls-2" transform="translate(310.11 330.98)">RO</text><text class="cls-3" transform="translate(0 396.87)">SALU</text></g></g></svg>
